<svg xmlns="http://www.w3.org/2000/svg" width="1024" height="1024" viewBox="0 0 1024 1024">
  <rect width="1024" height="1024" fill="#2F9E58"/>
  <polygon points="330,850 694,850 646,590 378,590" fill="#FDF9EF"/>
  <rect x="360" y="545" width="304" height="40" rx="18" fill="#E8DFC9"/>
  <polygon points="378,540 646,540 692,270 332,270" fill="#FDF9EF"/>
  <rect x="416" y="228" width="192" height="46" rx="22" fill="#FDF9EF"/>
  <circle cx="512" cy="196" r="34" fill="#FDF9EF"/>
  <path d="M 690 320 q 110 20 96 120 q -10 80 -96 96 l -14 -60 q 50 -12 54 -46 q 6 -44 -52 -50 z" fill="#FDF9EF"/>
  <rect x="382" y="700" width="100" height="44" rx="22" fill="#4CBA72"/>
  <rect x="462" y="700" width="100" height="44" fill="#E8DFC9"/>
  <rect x="542" y="700" width="100" height="44" rx="22" fill="#E25B45"/>
</svg>
